<svg width="64" height="64" viewBox="0 0 64 64" fill="none" xmlns="http://www.w3.org/2000/svg">
<path fill-rule="evenodd" clip-rule="evenodd" d="M6 38.667C6 37.5624 6.89543 36.667 8 36.667H26.6667C27.7712 36.667 28.6667 37.5624 28.6667 38.667V57.3337C28.6667 58.4382 27.7712 59.3337 26.6667 59.3337H8C6.89543 59.3337 6 58.4382 6 57.3337V38.667ZM10 40.667V55.3337H24.6667V40.667H10Z" fill="url(#paint0_linear_4320_13369)"/>
<path fill-rule="evenodd" clip-rule="evenodd" d="M32.0013 3.33301C32.71 3.33301 33.3658 3.70809 33.7252 4.31897L47.0585 26.9856C47.4223 27.604 47.4269 28.3699 47.0707 28.9926C46.7145 29.6154 46.0521 29.9997 45.3346 29.9997H18.668C17.9505 29.9997 17.2881 29.6154 16.9319 28.9926C16.5757 28.3699 16.5803 27.604 16.9441 26.9856L30.2774 4.31897C30.6368 3.70809 31.2926 3.33301 32.0013 3.33301ZM22.1648 25.9997H41.8378L32.0013 9.27762L22.1648 25.9997Z" fill="url(#paint1_linear_4320_13369)"/>
<path fill-rule="evenodd" clip-rule="evenodd" d="M47.9987 39.333C43.2122 39.333 39.332 43.2132 39.332 47.9997C39.332 52.7861 43.2122 56.6663 47.9987 56.6663C52.7852 56.6663 56.6654 52.7861 56.6654 47.9997C56.6654 43.2132 52.7852 39.333 47.9987 39.333ZM35.332 47.9997C35.332 41.0041 41.0031 35.333 47.9987 35.333C54.9943 35.333 60.6654 41.0041 60.6654 47.9997C60.6654 54.9953 54.9943 60.6663 47.9987 60.6663C41.0031 60.6663 35.332 54.9953 35.332 47.9997Z" fill="url(#paint2_linear_4320_13369)"/>
<defs>
<linearGradient id="paint0_linear_4320_13369" x1="6" y1="36.667" x2="28.943" y2="36.9502" gradientUnits="userSpaceOnUse">
<stop stop-color="#73E0A9"/>
<stop offset="1" stop-color="#5B68DF"/>
</linearGradient>
<linearGradient id="paint1_linear_4320_13369" x1="16.668" y1="3.33301" x2="47.707" y2="3.77369" gradientUnits="userSpaceOnUse">
<stop stop-color="#73E0A9"/>
<stop offset="1" stop-color="#5B68DF"/>
</linearGradient>
<linearGradient id="paint2_linear_4320_13369" x1="35.332" y1="35.333" x2="60.9742" y2="35.6496" gradientUnits="userSpaceOnUse">
<stop stop-color="#73E0A9"/>
<stop offset="1" stop-color="#5B68DF"/>
</linearGradient>
</defs>
</svg>
